<?xml version="1.0" encoding="UTF-8"?>
<svg xmlns="http://www.w3.org/2000/svg" xmlns:xlink="http://www.w3.org/1999/xlink" width="318.63pt" height="119.05pt" viewBox="0 0 318.63 119.05" version="1.1">
<defs>
<clipPath id="clip1">
  <path d="M 0 0 L 318.628906 0 L 318.628906 93 L 0 93 Z M 0 0 "/>
</clipPath>
<clipPath id="clip2">
  <path d="M 199 97 L 206 97 L 206 119.050781 L 199 119.050781 Z M 199 97 "/>
</clipPath>
</defs>
<g id="surface1">
<g clip-path="url(#clip1)" clip-rule="nonzero">
<path style=" stroke:none;fill-rule:nonzero;fill:rgb(100%,100%,100%);fill-opacity:1;" d="M 318.636719 21.683594 C 314.457031 39.988281 292.894531 56.757813 278.8125 63.210938 C 266.878906 68.671875 252.421875 77.355469 253 92.914063 L 6.496094 92.914063 C 2.917969 92.914063 0 89.996094 0 86.417969 L 0 6.496094 C 0 2.929688 2.917969 0.00390625 6.496094 0.00390625 L 318.636719 0.00390625 L 318.636719 21.683594 "/>
</g>
<path style=" stroke:none;fill-rule:evenodd;fill:rgb(55.299377%,77.598572%,24.699402%);fill-opacity:1;" d="M 317.148438 1.503906 C 317.066406 6.234375 314.011719 40.996094 252.972656 49.28125 C 187.414063 56.460938 185.730469 91.421875 185.730469 91.421875 L 207.535156 91.421875 C 210.339844 75.917969 224.132813 59.539063 256.035156 54.476563 C 309.574219 45.925781 316.886719 14.789063 317.148438 7.746094 L 317.148438 1.503906 "/>
<path style=" stroke:none;fill-rule:evenodd;fill:rgb(97.299194%,59.199524%,15.699768%);fill-opacity:1;" d="M 229.335938 91.421875 L 251.457031 91.421875 C 251.011719 79.855469 260.90625 69.757813 278.199219 61.847656 C 311.398438 46.628906 317.148438 21.511719 317.148438 21.511719 L 317.148438 14.898438 C 317.148438 14.898438 313.175781 45.925781 267.300781 58.398438 C 239.367188 65.769531 230.625 77.707031 229.335938 91.421875 "/>
<path style=" stroke:none;fill-rule:evenodd;fill:rgb(100%,76.899719%,14.498901%);fill-opacity:1;" d="M 317.148438 14.898438 C 317.148438 14.898438 313.175781 45.925781 267.300781 58.398438 C 239.367188 65.769531 230.625 77.707031 229.335938 91.421875 L 207.535156 91.421875 C 210.339844 75.917969 224.132813 59.539063 256.035156 54.476563 C 309.574219 45.925781 316.886719 14.789063 317.148438 7.746094 L 317.148438 14.898438 "/>
<path style=" stroke:none;fill-rule:evenodd;fill:rgb(0%,57.598877%,81.599426%);fill-opacity:1;" d="M 317.148438 1.503906 L 6.496094 1.503906 C 3.742188 1.503906 1.492188 3.757813 1.492188 6.5 L 1.492188 86.417969 C 1.492188 89.167969 3.753906 91.421875 6.496094 91.421875 L 185.757813 91.421875 C 185.757813 91.421875 187.4375 56.460938 252.992188 49.28125 C 314.03125 40.996094 317.066406 6.234375 317.148438 1.503906 "/>
<path style=" stroke:none;fill-rule:evenodd;fill:rgb(100%,100%,100%);fill-opacity:1;" d="M 16.320313 48.386719 L 26.769531 47.371094 C 27.402344 50.878906 28.675781 53.453125 30.582031 55.089844 C 32.519531 56.742188 35.117188 57.558594 38.382813 57.558594 C 41.84375 57.558594 44.433594 56.84375 46.179688 55.386719 C 47.949219 53.917969 48.824219 52.199219 48.824219 50.230469 C 48.824219 48.976563 48.449219 47.910156 47.707031 47.042969 C 46.980469 46.148438 45.703125 45.375 43.851563 44.71875 C 42.597656 44.292969 39.738281 43.507813 35.265625 42.402344 C 29.5 40.96875 25.464844 39.21875 23.148438 37.136719 C 19.875 34.210938 18.246094 30.648438 18.246094 26.441406 C 18.246094 23.726563 19.007813 21.199219 20.53125 18.851563 C 22.074219 16.488281 24.289063 14.683594 27.171875 13.449219 C 30.078125 12.21875 33.5625 11.597656 37.65625 11.597656 C 44.328125 11.597656 49.351563 13.058594 52.714844 15.984375 C 56.09375 18.921875 57.867188 22.820313 58.039063 27.703125 L 47.308594 28.179688 C 46.839844 25.445313 45.859375 23.488281 44.328125 22.296875 C 42.832031 21.089844 40.570313 20.488281 37.550781 20.488281 C 34.425781 20.488281 31.984375 21.128906 30.214844 22.40625 C 29.078125 23.234375 28.515625 24.332031 28.515625 25.710938 C 28.515625 26.96875 29.042969 28.042969 30.105469 28.941406 C 31.464844 30.078125 34.75 31.261719 39.972656 32.5 C 45.203125 33.722656 49.054688 35.007813 51.554688 36.34375 C 54.0625 37.648438 56.019531 39.449219 57.4375 41.75 C 58.855469 44.019531 59.570313 46.839844 59.570313 50.199219 C 59.570313 53.25 58.726563 56.105469 57.03125 58.757813 C 55.328125 61.417969 52.933594 63.398438 49.847656 64.707031 C 46.753906 65.996094 42.894531 66.632813 38.273438 66.632813 C 31.550781 66.632813 26.382813 65.085938 22.78125 61.988281 C 19.171875 58.867188 17.027344 54.332031 16.320313 48.386719 "/>
<path style=" stroke:none;fill-rule:evenodd;fill:rgb(100%,100%,100%);fill-opacity:1;" d="M 87.371094 47.195313 C 86.066406 47.628906 83.996094 48.144531 81.171875 48.753906 C 78.335938 49.355469 76.480469 49.941406 75.621094 50.523438 C 74.277344 51.46875 73.625 52.667969 73.625 54.117188 C 73.625 55.546875 74.160156 56.785156 75.210938 57.816406 C 76.28125 58.859375 77.632813 59.378906 79.28125 59.378906 C 81.117188 59.378906 82.871094 58.777344 84.539063 57.558594 C 85.777344 56.644531 86.582031 55.519531 86.976563 54.1875 C 87.234375 53.324219 87.359375 51.660156 87.371094 49.214844 Z M 73.71875 38.914063 L 64.488281 37.246094 C 65.523438 33.527344 67.304688 30.765625 69.851563 28.980469 C 72.386719 27.191406 76.164063 26.289063 81.171875 26.289063 C 85.71875 26.289063 89.101563 26.835938 91.328125 27.925781 C 93.546875 28.988281 95.109375 30.351563 96.015625 32.027344 C 96.933594 33.667969 97.378906 36.707031 97.378906 41.125 L 97.273438 53.03125 C 97.273438 56.417969 97.433594 58.914063 97.75 60.539063 C 98.082031 62.136719 98.703125 63.855469 99.59375 65.695313 L 89.519531 65.695313 C 89.238281 65.011719 88.914063 64 88.527344 62.675781 C 88.363281 62.074219 88.246094 61.675781 88.171875 61.484375 C 86.433594 63.179688 84.570313 64.4375 82.585938 65.292969 C 80.597656 66.136719 78.484375 66.558594 76.230469 66.558594 C 72.273438 66.558594 69.132813 65.472656 66.835938 63.328125 C 64.566406 61.179688 63.417969 58.460938 63.417969 55.171875 C 63.417969 52.988281 63.941406 51.058594 64.984375 49.367188 C 66.03125 47.644531 67.480469 46.339844 69.335938 45.449219 C 71.226563 44.523438 73.929688 43.726563 77.46875 43.050781 C 82.226563 42.152344 85.53125 41.324219 87.371094 40.550781 L 87.371094 39.53125 C 87.371094 37.578125 86.890625 36.183594 85.921875 35.359375 C 84.960938 34.511719 83.125 34.097656 80.445313 34.097656 C 78.625 34.097656 77.21875 34.453125 76.199219 35.183594 C 75.1875 35.878906 74.359375 37.128906 73.71875 38.914063 "/>
<path style=" stroke:none;fill-rule:evenodd;fill:rgb(100%,100%,100%);fill-opacity:1;" d="M 100.195313 27.15625 L 111.035156 27.15625 L 120.246094 54.523438 L 129.242188 27.15625 L 139.808594 27.15625 L 126.207031 64.234375 L 123.777344 70.953125 C 122.878906 73.203125 122.027344 74.910156 121.195313 76.109375 C 120.398438 77.28125 119.460938 78.242188 118.40625 78.96875 C 117.363281 79.71875 116.070313 80.296875 114.515625 80.710938 C 112.996094 81.117188 111.273438 81.328125 109.335938 81.328125 C 107.367188 81.328125 105.449219 81.117188 103.570313 80.710938 L 102.667969 72.734375 C 104.257813 73.042969 105.691406 73.203125 106.972656 73.203125 C 109.347656 73.203125 111.101563 72.488281 112.242188 71.09375 C 113.359375 69.710938 114.246094 67.957031 114.839844 65.796875 L 100.195313 27.15625 "/>
<path style=" stroke:none;fill-rule:evenodd;fill:rgb(100%,100%,100%);fill-opacity:1;" d="M 166.820313 43.125 C 166.746094 40.171875 165.972656 37.9375 164.53125 36.40625 C 163.070313 34.863281 161.3125 34.097656 159.230469 34.097656 C 157.007813 34.097656 155.167969 34.90625 153.730469 36.523438 C 152.273438 38.144531 151.546875 40.34375 151.570313 43.125 Z M 166.234375 53.425781 L 176.398438 55.128906 C 175.09375 58.859375 173.019531 61.699219 170.1875 63.65625 C 167.382813 65.597656 163.871094 66.558594 159.640625 66.558594 C 152.925781 66.558594 147.972656 64.375 144.753906 60 C 142.222656 56.488281 140.949219 52.066406 140.949219 46.71875 C 140.949219 40.324219 142.621094 35.335938 145.960938 31.734375 C 149.296875 28.105469 153.507813 26.289063 158.613281 26.289063 C 164.351563 26.289063 168.871094 28.1875 172.1875 31.992188 C 175.496094 35.757813 177.085938 41.554688 176.941406 49.367188 L 151.398438 49.367188 C 151.472656 52.390625 152.292969 54.742188 153.863281 56.4375 C 155.429688 58.105469 157.394531 58.949219 159.730469 58.949219 C 161.328125 58.949219 162.679688 58.511719 163.773438 57.636719 C 164.859375 56.765625 165.6875 55.363281 166.234375 53.425781 "/>
<path style=" stroke:none;fill-rule:evenodd;fill:rgb(100%,100%,100%);fill-opacity:1;" d="M 192.589844 65.695313 L 182.390625 65.695313 L 182.390625 27.15625 L 191.867188 27.15625 L 191.867188 32.640625 C 193.484375 30.054688 194.933594 28.347656 196.210938 27.527344 C 197.523438 26.703125 198.988281 26.289063 200.632813 26.289063 C 202.96875 26.289063 205.210938 26.929688 207.351563 28.214844 L 204.195313 37.097656 C 202.484375 35.984375 200.886719 35.433594 199.40625 35.433594 C 197.992188 35.433594 196.773438 35.828125 195.78125 36.632813 C 194.785156 37.402344 194.003906 38.820313 193.421875 40.878906 C 192.867188 42.929688 192.589844 47.234375 192.589844 53.792969 L 192.589844 65.695313 "/>
<path style=" stroke:none;fill-rule:evenodd;fill:rgb(0%,57.598877%,81.599426%);fill-opacity:1;" d="M 303.609375 79.46875 L 304.9375 79.46875 C 305.804688 79.46875 306.421875 79.328125 306.777344 79.035156 C 307.144531 78.761719 307.320313 78.390625 307.320313 77.953125 C 307.320313 77.5 307.148438 77.136719 306.792969 76.855469 C 306.457031 76.570313 305.875 76.433594 305.050781 76.433594 L 303.609375 76.433594 Z M 300.597656 74.335938 L 306.042969 74.335938 C 307.578125 74.335938 308.695313 74.644531 309.394531 75.257813 C 310.082031 75.882813 310.425781 76.707031 310.425781 77.75 C 310.425781 78.554688 310.160156 79.261719 309.636719 79.851563 C 309.117188 80.441406 308.273438 80.875 307.144531 81.148438 C 307.609375 81.320313 307.945313 81.511719 308.171875 81.707031 C 308.480469 81.992188 308.796875 82.394531 309.132813 82.941406 C 309.152344 82.980469 309.820313 84.140625 311.09375 86.445313 L 307.539063 86.445313 C 306.363281 84.140625 305.585938 82.753906 305.1875 82.3125 C 304.78125 81.859375 304.398438 81.636719 303.988281 81.636719 C 303.902344 81.636719 303.777344 81.652344 303.609375 81.679688 L 303.609375 86.445313 L 300.597656 86.445313 Z M 314.949219 80.382813 C 314.949219 77.875 314.050781 75.71875 312.246094 73.9375 C 310.460938 72.164063 308.289063 71.269531 305.753906 71.269531 C 303.214844 71.269531 301.046875 72.164063 299.257813 73.9375 C 297.453125 75.71875 296.566406 77.875 296.566406 80.382813 C 296.566406 82.90625 297.453125 85.050781 299.257813 86.835938 C 301.046875 88.617188 303.214844 89.511719 305.753906 89.511719 C 308.289063 89.511719 310.460938 88.617188 312.246094 86.835938 C 314.050781 85.050781 314.949219 82.90625 314.949219 80.382813 Z M 317.148438 80.382813 C 317.148438 82.414063 316.644531 84.308594 315.625 86.054688 C 314.601563 87.792969 313.214844 89.179688 311.4375 90.183594 C 309.683594 91.203125 307.789063 91.691406 305.746094 91.691406 C 303.722656 91.691406 301.8125 91.203125 300.066406 90.183594 C 298.296875 89.179688 296.902344 87.792969 295.886719 86.054688 C 294.867188 84.308594 294.363281 82.414063 294.363281 80.382813 C 294.363281 78.375 294.867188 76.480469 295.886719 74.734375 C 296.902344 72.988281 298.296875 71.597656 300.066406 70.597656 C 301.8125 69.582031 303.722656 69.078125 305.746094 69.078125 C 307.789063 69.078125 309.683594 69.582031 311.4375 70.597656 C 313.214844 71.597656 314.601563 72.988281 315.625 74.734375 C 316.644531 76.480469 317.148438 78.375 317.148438 80.382813 "/>
<path style=" stroke:none;fill-rule:nonzero;fill:rgb(0%,57.598877%,81.599426%);fill-opacity:1;" d="M 136.652344 114.167969 L 136.652344 97.703125 L 140.003906 97.703125 L 140.003906 111.367188 L 148.339844 111.367188 L 148.339844 114.167969 L 136.652344 114.167969 "/>
<path style=" stroke:none;fill-rule:nonzero;fill:rgb(0%,57.598877%,81.599426%);fill-opacity:1;" d="M 157.429688 108.394531 C 157.023438 108.53125 156.382813 108.691406 155.496094 108.878906 C 154.613281 109.066406 154.035156 109.257813 153.761719 109.433594 C 153.347656 109.730469 153.140625 110.097656 153.140625 110.558594 C 153.140625 111 153.304688 111.386719 153.640625 111.710938 C 153.972656 112.035156 154.394531 112.199219 154.90625 112.199219 C 155.480469 112.199219 156.027344 112.011719 156.550781 111.632813 C 156.9375 111.34375 157.183594 110.996094 157.308594 110.582031 C 157.390625 110.304688 157.429688 109.792969 157.429688 109.03125 Z M 153.179688 105.816406 L 150.289063 105.292969 C 150.613281 104.128906 151.171875 103.269531 151.960938 102.714844 C 152.757813 102.152344 153.933594 101.871094 155.496094 101.871094 C 156.914063 101.871094 157.972656 102.039063 158.667969 102.375 C 159.359375 102.714844 159.847656 103.136719 160.132813 103.65625 C 160.417969 104.167969 160.558594 105.121094 160.558594 106.503906 L 160.523438 110.21875 C 160.523438 111.273438 160.578125 112.050781 160.675781 112.558594 C 160.777344 113.058594 160.96875 113.59375 161.25 114.167969 L 158.097656 114.167969 C 158.019531 113.957031 157.917969 113.644531 157.792969 113.230469 C 157.738281 113.042969 157.703125 112.917969 157.683594 112.855469 C 157.140625 113.386719 156.558594 113.78125 155.9375 114.042969 C 155.316406 114.308594 154.660156 114.441406 153.957031 114.441406 C 152.722656 114.441406 151.738281 114.105469 151.027344 113.433594 C 150.316406 112.761719 149.957031 111.917969 149.957031 110.890625 C 149.957031 110.207031 150.121094 109.601563 150.445313 109.066406 C 150.769531 108.539063 151.226563 108.128906 151.8125 107.847656 C 152.394531 107.5625 153.238281 107.3125 154.34375 107.105469 C 155.824219 106.828125 156.859375 106.566406 157.429688 106.324219 L 157.429688 106.011719 C 157.429688 105.394531 157.28125 104.957031 156.980469 104.695313 C 156.675781 104.4375 156.109375 104.308594 155.265625 104.308594 C 154.703125 104.308594 154.261719 104.417969 153.945313 104.640625 C 153.628906 104.863281 153.367188 105.253906 153.179688 105.816406 "/>
<path style=" stroke:none;fill-rule:nonzero;fill:rgb(0%,57.598877%,81.599426%);fill-opacity:1;" d="M 170.296875 114.167969 L 170.296875 97.570313 L 175.316406 97.570313 L 178.328125 108.890625 L 181.304688 97.570313 L 186.328125 97.570313 L 186.328125 114.167969 L 183.21875 114.167969 L 183.21875 101.105469 L 179.925781 114.167969 L 176.695313 114.167969 L 173.410156 101.105469 L 173.410156 114.167969 L 170.296875 114.167969 "/>
<path style=" stroke:none;fill-rule:nonzero;fill:rgb(0%,57.598877%,81.599426%);fill-opacity:1;" d="M 196.871094 107.128906 C 196.851563 106.207031 196.613281 105.503906 196.160156 105.027344 C 195.707031 104.542969 195.160156 104.308594 194.507813 104.308594 C 193.808594 104.308594 193.238281 104.5625 192.789063 105.0625 C 192.335938 105.570313 192.113281 106.257813 192.121094 107.128906 Z M 196.691406 110.34375 L 199.855469 110.875 C 199.457031 112.035156 198.8125 112.921875 197.9375 113.53125 C 197.054688 114.136719 195.953125 114.441406 194.632813 114.441406 C 192.539063 114.441406 190.992188 113.757813 189.992188 112.390625 C 189.191406 111.292969 188.800781 109.914063 188.800781 108.242188 C 188.800781 106.257813 189.320313 104.695313 190.363281 103.566406 C 191.40625 102.433594 192.726563 101.871094 194.316406 101.871094 C 196.101563 101.871094 197.515625 102.464844 198.546875 103.648438 C 199.582031 104.824219 200.078125 106.636719 200.035156 109.078125 L 192.0625 109.078125 C 192.085938 110.019531 192.339844 110.75 192.832031 111.273438 C 193.324219 111.800781 193.933594 112.070313 194.667969 112.070313 C 195.167969 112.070313 195.585938 111.925781 195.925781 111.65625 C 196.257813 111.382813 196.519531 110.945313 196.691406 110.34375 "/>
<g clip-path="url(#clip2)" clip-rule="nonzero">
<path style=" stroke:none;fill-rule:nonzero;fill:rgb(0%,57.598877%,81.599426%);fill-opacity:1;" d="M 202.652344 100.511719 L 202.652344 97.570313 L 205.832031 97.570313 L 205.832031 100.511719 Z M 205.832031 102.140625 L 205.832031 113.792969 C 205.832031 115.332031 205.730469 116.40625 205.535156 117.039063 C 205.332031 117.667969 204.941406 118.164063 204.378906 118.515625 C 203.808594 118.875 203.078125 119.050781 202.195313 119.050781 C 201.878906 119.050781 201.539063 119.015625 201.175781 118.960938 C 200.804688 118.90625 200.410156 118.824219 199.988281 118.710938 L 200.546875 115.988281 C 200.695313 116.019531 200.835938 116.046875 200.96875 116.0625 C 201.105469 116.082031 201.222656 116.089844 201.335938 116.089844 C 201.660156 116.089844 201.929688 116.019531 202.132813 115.882813 C 202.34375 115.742188 202.480469 115.574219 202.546875 115.382813 C 202.617188 115.183594 202.652344 114.59375 202.652344 113.613281 L 202.652344 102.140625 L 205.832031 102.140625 "/>
</g>
<path style=" stroke:none;fill-rule:nonzero;fill:rgb(0%,57.598877%,81.599426%);fill-opacity:1;" d="M 211.78125 108.15625 C 211.78125 109.351563 212.058594 110.257813 212.628906 110.894531 C 213.191406 111.53125 213.894531 111.847656 214.71875 111.847656 C 215.550781 111.847656 216.25 111.53125 216.808594 110.894531 C 217.371094 110.257813 217.65625 109.339844 217.65625 108.128906 C 217.65625 106.957031 217.371094 106.050781 216.808594 105.417969 C 216.25 104.785156 215.550781 104.464844 214.71875 104.464844 C 213.894531 104.464844 213.191406 104.785156 212.628906 105.417969 C 212.058594 106.050781 211.78125 106.964844 211.78125 108.15625 Z M 208.515625 107.992188 C 208.515625 106.929688 208.773438 105.90625 209.300781 104.917969 C 209.816406 103.929688 210.554688 103.175781 211.507813 102.652344 C 212.464844 102.132813 213.535156 101.871094 214.710938 101.871094 C 216.527344 101.871094 218.019531 102.464844 219.1875 103.648438 C 220.34375 104.824219 220.929688 106.320313 220.929688 108.121094 C 220.929688 109.945313 220.339844 111.445313 219.167969 112.644531 C 217.988281 113.839844 216.507813 114.441406 214.734375 114.441406 C 213.628906 114.441406 212.578125 114.191406 211.582031 113.699219 C 210.578125 113.191406 209.816406 112.464844 209.300781 111.5 C 208.773438 110.539063 208.515625 109.367188 208.515625 107.992188 "/>
<path style=" stroke:none;fill-rule:nonzero;fill:rgb(0%,57.598877%,81.599426%);fill-opacity:1;" d="M 226.558594 114.167969 L 223.371094 114.167969 L 223.371094 102.140625 L 226.328125 102.140625 L 226.328125 103.855469 C 226.835938 103.050781 227.289063 102.515625 227.695313 102.257813 C 228.097656 101.996094 228.554688 101.871094 229.070313 101.871094 C 229.792969 101.871094 230.492188 102.070313 231.164063 102.472656 L 230.183594 105.246094 C 229.644531 104.898438 229.148438 104.730469 228.683594 104.730469 C 228.242188 104.730469 227.863281 104.847656 227.550781 105.097656 C 227.242188 105.339844 227 105.78125 226.816406 106.425781 C 226.644531 107.066406 226.558594 108.40625 226.558594 110.457031 L 226.558594 114.167969 "/>
<path style=" stroke:none;fill-rule:nonzero;fill:rgb(0%,57.598877%,81.599426%);fill-opacity:1;" d="M 242.535156 100.382813 L 242.535156 105.085938 L 244.371094 105.085938 C 245.6875 105.085938 246.574219 105.003906 247.019531 104.828125 C 247.464844 104.652344 247.8125 104.382813 248.066406 104.007813 C 248.320313 103.648438 248.445313 103.214844 248.445313 102.722656 C 248.445313 102.121094 248.269531 101.617188 247.910156 101.226563 C 247.5625 100.835938 247.109375 100.589844 246.566406 100.492188 C 246.164063 100.414063 245.363281 100.382813 244.15625 100.382813 Z M 239.1875 114.167969 L 239.1875 97.570313 L 244.5625 97.570313 C 246.601563 97.570313 247.929688 97.652344 248.550781 97.824219 C 249.5 98.066406 250.300781 98.609375 250.9375 99.441406 C 251.574219 100.28125 251.902344 101.359375 251.902344 102.675781 C 251.902344 103.695313 251.714844 104.550781 251.34375 105.246094 C 250.972656 105.941406 250.503906 106.488281 249.9375 106.882813 C 249.363281 107.277344 248.785156 107.539063 248.199219 107.667969 C 247.398438 107.828125 246.238281 107.910156 244.71875 107.910156 L 242.535156 107.910156 L 242.535156 114.167969 L 239.1875 114.167969 "/>
<path style=" stroke:none;fill-rule:nonzero;fill:rgb(0%,57.598877%,81.599426%);fill-opacity:1;" d="M 254.71875 114.167969 L 254.71875 102.140625 L 257.902344 102.140625 L 257.902344 114.167969 Z M 254.71875 100.511719 L 254.71875 97.570313 L 257.902344 97.570313 L 257.902344 100.511719 L 254.71875 100.511719 "/>
<path style=" stroke:none;fill-rule:nonzero;fill:rgb(0%,57.598877%,81.599426%);fill-opacity:1;" d="M 272.195313 114.167969 L 269.007813 114.167969 L 269.007813 108.03125 C 269.007813 106.730469 268.945313 105.894531 268.808594 105.511719 C 268.675781 105.132813 268.453125 104.835938 268.144531 104.625 C 267.84375 104.410156 267.46875 104.308594 267.039063 104.308594 C 266.492188 104.308594 265.996094 104.460938 265.558594 104.761719 C 265.121094 105.0625 264.820313 105.464844 264.65625 105.957031 C 264.496094 106.457031 264.417969 107.378906 264.417969 108.722656 L 264.417969 114.167969 L 261.234375 114.167969 L 261.234375 102.140625 L 264.1875 102.140625 L 264.1875 103.910156 C 265.238281 102.554688 266.558594 101.871094 268.152344 101.871094 C 268.851563 101.871094 269.496094 101.996094 270.074219 102.25 C 270.65625 102.503906 271.097656 102.828125 271.398438 103.222656 C 271.691406 103.613281 271.902344 104.054688 272.019531 104.554688 C 272.132813 105.054688 272.195313 105.765625 272.195313 106.695313 L 272.195313 114.167969 "/>
<path style=" stroke:none;fill-rule:nonzero;fill:rgb(0%,57.598877%,81.599426%);fill-opacity:1;" d="M 281.027344 102.140625 L 281.027344 104.679688 L 278.855469 104.679688 L 278.855469 109.527344 C 278.855469 110.507813 278.871094 111.082031 278.910156 111.242188 C 278.953125 111.402344 279.050781 111.542969 279.199219 111.644531 C 279.34375 111.75 279.523438 111.804688 279.734375 111.804688 C 280.027344 111.804688 280.457031 111.699219 281.015625 111.496094 L 281.285156 113.960938 C 280.546875 114.28125 279.710938 114.441406 278.773438 114.441406 C 278.199219 114.441406 277.679688 114.335938 277.222656 114.148438 C 276.761719 113.957031 276.421875 113.710938 276.207031 113.402344 C 275.992188 113.101563 275.84375 112.6875 275.761719 112.164063 C 275.695313 111.796875 275.660156 111.046875 275.660156 109.917969 L 275.660156 104.679688 L 274.195313 104.679688 L 274.195313 102.140625 L 275.660156 102.140625 L 275.660156 99.753906 L 278.855469 97.898438 L 278.855469 102.140625 L 281.027344 102.140625 "/>
<path style=" stroke:none;fill-rule:nonzero;fill:rgb(0%,57.598877%,81.599426%);fill-opacity:1;" d="M 291.242188 114.167969 L 291.242188 112.367188 C 290.800781 113.007813 290.230469 113.519531 289.511719 113.882813 C 288.804688 114.253906 288.050781 114.441406 287.257813 114.441406 C 286.449219 114.441406 285.722656 114.261719 285.085938 113.90625 C 284.4375 113.554688 283.976563 113.054688 283.691406 112.417969 C 283.402344 111.773438 283.257813 110.890625 283.257813 109.75 L 283.257813 102.140625 L 286.441406 102.140625 L 286.441406 107.667969 C 286.441406 109.359375 286.5 110.394531 286.613281 110.78125 C 286.734375 111.160156 286.945313 111.460938 287.257813 111.6875 C 287.566406 111.90625 287.957031 112.019531 288.433594 112.019531 C 288.976563 112.019531 289.464844 111.871094 289.890625 111.570313 C 290.324219 111.273438 290.617188 110.898438 290.777344 110.460938 C 290.9375 110.019531 291.015625 108.9375 291.015625 107.214844 L 291.015625 102.140625 L 294.195313 102.140625 L 294.195313 114.167969 L 291.242188 114.167969 "/>
<path style=" stroke:none;fill-rule:nonzero;fill:rgb(0%,57.598877%,81.599426%);fill-opacity:1;" d="M 300.625 114.167969 L 297.449219 114.167969 L 297.449219 102.140625 L 300.402344 102.140625 L 300.402344 103.855469 C 300.910156 103.050781 301.363281 102.515625 301.765625 102.257813 C 302.171875 101.996094 302.632813 101.871094 303.140625 101.871094 C 303.867188 101.871094 304.566406 102.070313 305.238281 102.472656 L 304.25 105.246094 C 303.714844 104.898438 303.21875 104.730469 302.757813 104.730469 C 302.3125 104.730469 301.9375 104.847656 301.628906 105.097656 C 301.316406 105.339844 301.070313 105.78125 300.894531 106.425781 C 300.71875 107.066406 300.625 108.40625 300.625 110.457031 L 300.625 114.167969 "/>
<path style=" stroke:none;fill-rule:nonzero;fill:rgb(0%,57.598877%,81.599426%);fill-opacity:1;" d="M 313.335938 108.394531 C 312.925781 108.53125 312.285156 108.691406 311.398438 108.878906 C 310.515625 109.066406 309.9375 109.257813 309.664063 109.433594 C 309.253906 109.730469 309.046875 110.097656 309.046875 110.558594 C 309.046875 111 309.210938 111.386719 309.539063 111.710938 C 309.875 112.035156 310.296875 112.199219 310.808594 112.199219 C 311.382813 112.199219 311.929688 112.011719 312.453125 111.632813 C 312.839844 111.34375 313.089844 110.996094 313.214844 110.582031 C 313.292969 110.304688 313.335938 109.792969 313.335938 109.03125 Z M 309.078125 105.816406 L 306.195313 105.292969 C 306.519531 104.128906 307.070313 103.269531 307.863281 102.714844 C 308.65625 102.152344 309.835938 101.871094 311.398438 101.871094 C 312.816406 101.871094 313.875 102.039063 314.570313 102.375 C 315.265625 102.714844 315.753906 103.136719 316.03125 103.65625 C 316.316406 104.167969 316.460938 105.121094 316.460938 106.503906 L 316.429688 110.21875 C 316.429688 111.273438 316.476563 112.050781 316.582031 112.558594 C 316.683594 113.058594 316.867188 113.59375 317.148438 114.167969 L 314.003906 114.167969 C 313.921875 113.957031 313.820313 113.644531 313.695313 113.230469 C 313.644531 113.042969 313.609375 112.917969 313.585938 112.855469 C 313.039063 113.386719 312.460938 113.78125 311.839844 114.042969 C 311.222656 114.308594 310.5625 114.441406 309.859375 114.441406 C 308.621094 114.441406 307.648438 114.105469 306.933594 113.433594 C 306.21875 112.761719 305.859375 111.917969 305.859375 110.890625 C 305.859375 110.207031 306.023438 109.601563 306.351563 109.066406 C 306.675781 108.539063 307.132813 108.128906 307.710938 107.847656 C 308.296875 107.5625 309.140625 107.3125 310.246094 107.105469 C 311.730469 106.828125 312.761719 106.566406 313.335938 106.324219 L 313.335938 106.011719 C 313.335938 105.394531 313.183594 104.957031 312.882813 104.695313 C 312.582031 104.4375 312.011719 104.308594 311.175781 104.308594 C 310.605469 104.308594 310.164063 104.417969 309.847656 104.640625 C 309.53125 104.863281 309.277344 105.253906 309.078125 105.816406 "/>
</g>
</svg>
